<svg fill="none" viewBox="0 0 288 305" xmlns="http://www.w3.org/2000/svg"><g fill="#ccc"><path d="m114.167 152.027 37.884-54.6284c5.125-7.389 13.261-12.055 22.135-12.838-.179-1.883-.745-3.758-1.76-5.5-3.747-6.431-11.998-8.608-18.429-4.861l-9.053 5.274c2.12-3.984 2.205-8.935-.234-13.121-3.747-6.431-11.998-8.608-18.43-4.861l-81.0381 47.2094 8.958-22.7654c2.726-6.927-.68-14.752-7.607-17.475-6.926-2.726-14.75.68-17.475 7.606 0 0-17.355 43.7774-22.99001 58.4284-5.595001 14.546-9.317 25.256-2.266 37.36l16.26901 27.926c8.311 14.265 25.056 20.623 40.277 16.456l-3.003-48.307c-1.034-16.627 11.584-30.926 28.215-31.959 12.124-.755 23.1351 5.803 28.5471 16.056z"/><path d="m212.937 75.0085c2.931 2.929 7.678 2.928 10.607 0l36.723-36.723c2.929-2.93 2.929-7.678 0-10.607-2.93-2.928-7.678-2.928-10.607 0l-36.723 36.722c-2.929 2.93-2.929 7.678 0 10.608z"/><path d="m191.238 52.1235c3.939 1.255 8.163-.918 9.422-4.871l11.932-37.47297c1.257-3.946-.924-8.165-4.871-9.421999-3.948-1.262-8.165.923999-9.422 4.870999l-11.932 37.47297c-1.257 3.947.924 8.165 4.871 9.422z"/><path d="m287.588 80.2255c-1.257-3.946-5.473-6.13-9.422-4.871l-37.473 11.931c-4.236 1.349-6.492 6.151-4.48 10.374.311.468.611.943.895 1.428 1.906 2.3975 5.107 3.4555 8.136 2.4905l37.473-11.9315c3.947-1.256 6.127-5.474 4.871-9.421z"/><path d="m234.161 179.406c-4.431-3.073-9.979-3.467-14.679-1.424l14.322-20.653c4.767-6.874 3.059-16.311-3.815-21.077-4.432-3.074-9.98-3.467-14.68-1.424l8.225-11.86c4.767-6.874 3.059-16.311-3.815-21.078-6.864-4.7614-16.304-3.0684-21.077 3.815l-6.71 9.675c.264-5.065-2.004-10.146-6.479-13.249-6.867-4.7624-16.306-3.0654-21.077 3.815l-60.064 86.611-1.706-27.44c-.519-8.348-7.707-14.697-16.056-14.176-8.349.518-14.696 7.708-14.176 16.056 0 0 3.085 52.834 4.378 70.427 1.313 17.867 2.524 30.148 15.46 39.118l29.846 20.698c6.955 4.823 14.918 7.137 22.802 7.137 12.72 0 25.239-6.02 33.021-17.241 13.011-18.761 48.68-70.196 60.094-86.654 4.768-6.872 3.06-16.309-3.814-21.076z"/></g></svg>